# xmcd
#
# Track frame offsets:
#	150
#	17817
#	33505
#	52635
#	67907
#	82497
#	95495
#	110995
#	122195
#	138952
#	153365
#	165445
#	183255
#	199580
#	215340
#	232000
#	249377
#	269162
#	282695
#	301242
#	318955
#
# Disc length: 4468 seconds
#
# Revision: 1
# Processed by: cddbd v1.4b41PL2 Copyright (c) Steve Scherf et al.
# Submitted via: audiograbber 1.80
#
DISCID=30117215
DTITLE=The Judds - The Judds Collection
DYEAR=1900
DGENRE=
TTITLE0=Love Can Build A Bridge
TTITLE1=Why Not Me
TTITLE2=Grandpa (Tell Me 'Bout The Good Old Days)
TTITLE3=Have Mercy
TTITLE4=Mama He's Crazy
TTITLE5=Girls Night Out
TTITLE6=John Deere Tractor
TTITLE7=Don't Be Cruel
TTITLE8=Cry Myself (For The Heart)
TTITLE9=Had A Dream (For The Heart)
TTITLE10=Rockin' With The Rhythm Of The Rain
TTITLE11=Love Is Alive
TTITLE12=I Know Where I'm Going
TTITLE13=Maybe Your Baby's Got The Blues
TTITLE14=Turn It Loose
TTITLE15=Give A Little Love To Me
TTITLE16=Young Love
TTITLE17=Let Me Tell You About Love
TTITLE18=One Man Woman
TTITLE19=One Hundred And Two
TTITLE20=Change Of Heart
EXTD=
EXTT0=
EXTT1=
EXTT2=
EXTT3=
EXTT4=
EXTT5=
EXTT6=
EXTT7=
EXTT8=
EXTT9=
EXTT10=
EXTT11=
EXTT12=
EXTT13=
EXTT14=
EXTT15=
EXTT16=
EXTT17=
EXTT18=
EXTT19=
EXTT20=
PLAYORDER=
